# xmcd
#
# Track frame offsets:
#	150
#	15946
#	37412
#	57748
#	76194
#	95945
#	114174
#	133164
#	156544
#	176067
#	195083
#	220029
#
# Disc length: 3169 seconds
#
# Revision: 0
# Processed by: cddbd v1.5.2PL0 Copyright (c) Steve Scherf et al.
# Submitted via: dBpowerAMP V4.0
#
DISCID=a50c5f0c
DTITLE=Kenny Chesney - Compilation Album
DYEAR=1900
DGENRE=Country
TTITLE0=Never Wanted Nothing More
TTITLE1=Don't Blink
TTITLE2=Shiftwork (Duet With George Strait)
TTITLE3=Just Not Today
TTITLE4=Wife And Kids
TTITLE5=Got A Little Crazy
TTITLE6=Better As A Memory
TTITLE7=Dancin' For The Groceries
TTITLE8=Wild Ride (Featuring Joe Walsh)
TTITLE9=Scare Me
TTITLE10=Demons
TTITLE11=You Save Me
EXTD=
EXTT0=
EXTT1=
EXTT2=
EXTT3=
EXTT4=
EXTT5=
EXTT6=
EXTT7=
EXTT8=
EXTT9=
EXTT10=
EXTT11=
PLAYORDER=
